<svg width="32" height="32" viewBox="0 0 32 32" fill="none" xmlns="http://www.w3.org/2000/svg">
<path fill-rule="evenodd" clip-rule="evenodd" d="M28.2708 26.9791H27.6249C26.5549 26.9791 25.6874 26.1117 25.6874 25.0416H8.24992C7.49316 25.0416 6.84241 25.5676 6.20793 26.0803C5.94527 26.2926 5.68539 26.5026 5.42193 26.6722C5.12001 26.8664 4.76063 26.9791 4.37492 26.9791H3.72909C2.65903 26.9791 1.79159 26.1117 1.79159 25.0416V16.3134C1.79159 15.2857 2.19984 14.3001 2.92655 13.5734L3.72909 12.7708H2.41999C1.71625 12.7708 1.14575 12.2003 1.14575 11.4966C1.14575 11.1068 1.41105 10.767 1.78921 10.6724L2.92661 10.3881C3.33423 10.2862 3.72909 10.5945 3.72909 11.0146V12.125H4.37492L5.53367 7.87623C5.99345 6.19037 7.52469 5.02081 9.27213 5.02081H22.7277C24.4751 5.02081 26.0064 6.19037 26.4662 7.87623L27.6249 12.125H28.2708V11.0146C28.2708 10.5945 28.6656 10.2862 29.0732 10.3881L30.2106 10.6724C30.5888 10.767 30.8541 11.1068 30.8541 11.4966C30.8541 12.2003 30.2836 12.7708 29.5798 12.7708H28.2708L29.0733 13.5734C29.8 14.3001 30.2083 15.2857 30.2083 16.3134V25.0416C30.2083 26.1117 29.3408 26.9791 28.2708 26.9791ZM6.1299 8.42818L5.09554 11.8761C5.05393 12.0147 5.13005 12.1614 5.26742 12.2072C6.38738 12.5805 7.56021 12.7708 8.74076 12.7708H23.3225C24.5031 12.7708 25.6759 12.5805 26.7959 12.2072C26.9332 12.1614 27.0094 12.0147 26.9678 11.8761L25.9334 8.42818C25.4417 6.78912 23.9331 5.66666 22.2218 5.66666H9.84147C8.13024 5.66666 6.62162 6.78912 6.1299 8.42818ZM26.9769 13.6243C25.8987 14.6824 24.9932 15.4987 23.3173 16.194C23.1531 16.2621 23.0883 16.4633 23.1869 16.6112C23.4667 17.0309 23.9525 17.2654 24.4552 17.2235L26.2305 17.0756C27.0602 17.0064 27.8385 16.6455 28.4272 16.0568C28.8327 15.6512 28.8857 15.0118 28.5523 14.5451L27.9548 13.7087C27.7241 13.3857 27.2601 13.3463 26.9769 13.6243ZM4.91354 13.6244C5.99169 14.6824 6.89722 15.4988 8.57313 16.1941C8.73727 16.2622 8.80206 16.4634 8.70349 16.6112C8.42368 17.031 7.93792 17.2655 7.43522 17.2236L5.65993 17.0757C4.83025 17.0065 4.05194 16.6455 3.46323 16.0568C3.05766 15.6513 3.00474 15.0119 3.33812 14.5452L3.93558 13.7087C4.16628 13.3858 4.63026 13.3464 4.91354 13.6244ZM6.95828 21.1667C5.2788 20.8599 4.41278 20.598 3.08328 19.875L2.96098 20.3642C2.85908 20.7718 3.16737 21.1667 3.58753 21.1667H6.95828ZM24.8997 21.1667C26.5792 20.8599 27.4452 20.598 28.7747 19.875L28.897 20.3642C28.9989 20.7718 28.6906 21.1667 28.2705 21.1667H24.8997ZM8.7066 22.6475C8.82771 22.5264 8.99198 22.4583 9.16327 22.4583H22.8366C23.0079 22.4583 23.1721 22.5264 23.2933 22.6475L23.8445 23.1987C24.0479 23.4022 23.9039 23.75 23.6162 23.75H8.38368C8.09599 23.75 7.95192 23.4022 8.15534 23.1987L8.7066 22.6475Z" fill="white"/>
</svg>
