<svg width="32" height="32" viewBox="0 0 32 32" fill="none" xmlns="http://www.w3.org/2000/svg">
<path fill-rule="evenodd" clip-rule="evenodd" d="M25.3624 24.3333H24.8696C24.0532 24.3333 23.3914 23.6749 23.3914 22.8627H8.60878C8.60878 23.6749 7.94694 24.3333 7.13052 24.3333H6.63776C5.82134 24.3333 5.1595 23.6749 5.1595 22.8627V16.2379C5.1595 15.4578 5.47099 14.7097 6.02545 14.1582L6.63776 13.549H5.63896C5.10202 13.549 4.66675 13.116 4.66675 12.5819C4.66675 12.286 4.86916 12.0281 5.15769 11.9563L6.0255 11.7405C6.3365 11.6632 6.63776 11.8972 6.63776 12.2161V13.0588H7.13052L8.01461 9.83397C8.36541 8.55438 9.53371 7.66667 10.867 7.66667H21.1332C22.4665 7.66667 23.6348 8.55438 23.9855 9.83397L24.8696 13.0588H25.3624V12.2161C25.3624 11.8972 25.6637 11.6632 25.9747 11.7405L26.8425 11.9563C27.131 12.0281 27.3334 12.286 27.3334 12.5819C27.3334 13.116 26.8981 13.549 26.3612 13.549H25.3624L25.9747 14.1582C26.5292 14.7097 26.8407 15.4578 26.8407 16.2379V22.8627C26.8407 23.6749 26.1788 24.3333 25.3624 24.3333ZM7.68006 12.8699L8.46924 10.2529C8.84441 9.00883 9.99545 8.15686 11.3011 8.15686H20.747C22.0526 8.15686 23.2036 9.00883 23.5788 10.2529L24.368 12.8699C24.3997 12.9751 24.3416 13.0865 24.2368 13.1212C23.3823 13.4046 22.4875 13.549 21.5868 13.549H10.4613C9.56054 13.549 8.6657 13.4046 7.8112 13.1212C7.70639 13.0865 7.64831 12.9751 7.68006 12.8699ZM21.5827 16.1473C22.8614 15.6195 23.5523 14.9999 24.3748 14.1968C24.591 13.9858 24.945 14.0157 25.121 14.2608L25.5769 14.8957C25.8312 15.25 25.7908 15.7353 25.4814 16.0431C25.0322 16.4899 24.4384 16.7639 23.8054 16.8164L22.4509 16.9287C22.0673 16.9605 21.6967 16.7825 21.4832 16.4639C21.408 16.3517 21.4574 16.1989 21.5827 16.1473ZM10.3333 16.1473C9.05462 15.6196 8.36372 15 7.54113 14.1969C7.32499 13.9859 6.97099 14.0158 6.79497 14.2609L6.33912 14.8958C6.08476 15.25 6.12514 15.7353 6.43458 16.0431C6.88374 16.49 7.47758 16.764 8.1106 16.8165L9.4651 16.9287C9.84865 16.9605 10.2193 16.7825 10.4328 16.4639C10.508 16.3517 10.4585 16.199 10.3333 16.1473ZM10.4351 21.0455C10.5276 20.9536 10.6529 20.902 10.7836 20.902H21.2159C21.3466 20.902 21.472 20.9536 21.5644 21.0455L21.985 21.4639C22.1402 21.6183 22.0302 21.8824 21.8107 21.8824H10.1888C9.96927 21.8824 9.85934 21.6183 10.0146 21.4639L10.4351 21.0455Z" fill="black"/>
</svg>
