<svg width="32" height="32" viewBox="0 0 32 32" fill="none" xmlns="http://www.w3.org/2000/svg">
<path fill-rule="evenodd" clip-rule="evenodd" d="M5.52313 6.875H7.21295V10.9306H7.88888V12.2824H7.21295V14.3102H5.8611V12.2824H1.80554V10.9306L5.52313 6.875ZM5.8611 10.9306V8.90278L3.83332 10.9306H5.8611ZM26.8148 10.9306C26.8148 10.5573 27.1175 10.2546 27.4908 10.2546H28.8426C29.2159 10.2546 29.5185 10.5573 29.5185 10.9306V24.4491C29.5185 24.8224 29.2159 25.125 28.8426 25.125H27.4908C27.1175 25.125 26.8148 24.8224 26.8148 24.4491V10.9306ZM22.7593 12.9583C22.7593 12.585 23.0619 12.2824 23.4352 12.2824H24.7871C25.1604 12.2824 25.463 12.585 25.463 12.9583V24.4491C25.463 24.8224 25.1604 25.125 24.7871 25.125H23.4352C23.0619 25.125 22.7593 24.8224 22.7593 24.4491V12.9583ZM19.3797 14.3102C19.0063 14.3102 18.7037 14.6128 18.7037 14.9861V24.4491C18.7037 24.8224 19.0063 25.125 19.3797 25.125H20.7315C21.1048 25.125 21.4074 24.8224 21.4074 24.4491V14.9861C21.4074 14.6128 21.1048 14.3102 20.7315 14.3102H19.3797ZM14.6482 17.0139C14.6482 16.6406 14.9508 16.338 15.3241 16.338H16.6759C17.0493 16.338 17.3519 16.6406 17.3519 17.0139V24.4491C17.3519 24.8224 17.0493 25.125 16.6759 25.125H15.3241C14.9508 25.125 14.6482 24.8224 14.6482 24.4491V17.0139ZM11.2685 18.3658C10.8952 18.3658 10.5926 18.6684 10.5926 19.0417V24.4491C10.5926 24.8224 10.8952 25.125 11.2685 25.125H12.6204C12.9937 25.125 13.2963 24.8224 13.2963 24.4491V19.0417C13.2963 18.6684 12.9937 18.3658 12.6204 18.3658H11.2685ZM14.9861 8.90278L15.662 7.88889C15.662 7.88889 14.6481 6.875 12.9583 6.875C10.5926 6.875 9.24073 8.56481 9.24073 10.5926C9.24073 12.6204 10.5926 14.3102 12.9583 14.3102C14.9861 14.3102 16 12.9583 16 12.9583V10.2546H13.2963V11.6065H14.6481V12.2824C14.6481 12.2824 14.3102 12.9583 12.9583 12.9583C11.6065 12.9583 10.5926 11.9444 10.5926 10.5926C10.5926 9.24074 11.6065 8.22685 12.9583 8.22685C14.2563 8.22685 14.9861 8.90278 14.9861 8.90278Z" fill="black"/>
</svg>
